<?xml version="1.0" encoding="UTF-8"?>
<svg id="_圖層_2" data-name="圖層 2" xmlns="http://www.w3.org/2000/svg" viewBox="0 0 36.17 36.17">
  <defs>
    <style>
      .cls-1 {
        fill: #393935;
      }
    </style>
  </defs>
  <g id="_圖層_1-2" data-name="圖層 1">
    <g>
      <rect class="cls-1" x="16.28" y="-5.69" width="3.61" height="47.55" transform="translate(-7.49 18.09) rotate(-45)"/>
      <path class="cls-1" d="M23.92,21.57l2.44,2.44c-.68.85-1.51,1.58-2.44,2.17v-4.61Z"/>
      <path class="cls-1" d="M28.6,17.73c0,1.87-.52,3.62-1.42,5.12l-3.26-3.26v-10.31c2.81,1.77,4.68,4.89,4.68,8.45Z"/>
      <path class="cls-1" d="M29.45,27.1l2.56,2.56c-2.11,2.53-4.9,4.47-8.09,5.55v-3.84c2.19-.95,4.09-2.43,5.53-4.27Z"/>
      <path class="cls-1" d="M36.17,18.17c0,3.86-1.22,7.44-3.3,10.37l-2.59-2.59c1.45-2.24,2.29-4.91,2.29-7.78,0-5.91-3.56-10.98-8.65-13.2V1.13c7.12,2.39,12.25,9.12,12.25,17.04Z"/>
      <path class="cls-1" d="M13.52.17l-4.51,4.51,2.55,2.55,3.36-3.37h2.74v9.47l3.61,3.61V.17h-7.75ZM17.66,15.31v17.26h-2.65L3.77,21.33v-6.32l6.8-6.79-2.55-2.55L.17,13.52v9.3l13.35,13.35h7.75v-17.25l-3.61-3.61Z"/>
    </g>
  </g>
</svg>